PathFileType   4   (X/Y/Z)
DataRate	CameraRate	NumFrames	NumMarkers	Units	OrigDataRate	OrigDataStartFrame	OrigNumFrames
120.0	120.0	12	37	mm	120.0	136	155
Frame#	Time	midhip	hip_r	hip_l	knee_r	knee_l	ankle_r	ankle_l	midasis	asis_r	asis_l	psis_r	psis_l	epicondLat_r	epicondLat_l	epicondMed_r	epicondMed_l	malleolusLat_r	malleolusLat_l	malleolusMedv_r	malleolusMedv_l	neck	subclavicle_r	subclavicle_l	sternalnotch	xyphoidprocess	thighwand_r	thighwand_l	upperleg1_r	upperleg1_l	upperleg2_r	upperleg2_l	shankwand_r	shankwand_l	lowerleg1_r	lowerleg1_l	toe_r	toe_l
 	 	X1	Y1	Z1	X2	Y2	Z2	X3	Y3	Z3	X4	Y4	Z4	X5	Y5	Z5	X6	Y6	Z6	X7	Y7	Z7	X8	Y8	Z8	X9	Y9	Z9	X10	Y10	Z10	X11	Y11	Z11	X12	Y12	Z12	X13	Y13	Z13	X14	Y14	Z14	X15	Y15	Z15	X16	Y16	Z16	X17	Y17	Z17	X18	Y18	Z18	X19	Y19	Z19	X20	Y20	Z20	X21	Y21	Z21	X22	Y22	Z22	X23	Y23	Z23	X24	Y24	Z24	X25	Y25	Z25	X26	Y26	Z26	X27	Y27	Z27	X28	Y28	Z28	X29	Y29	Z29	X30	Y30	Z30	X31	Y31	Z31	X32	Y32	Z32	X33	Y33	Z33	X34	Y34	Z34	X35	Y35	Z35	X36	Y36	Z36	X37	Y37	Z37

	136	1.36667	1457.330	834.633	-219.319	1466.275	819.120	-160.027	1450.214	815.631	-276.343	1627.263	473.204	-156.902	1421.681	460.358	-253.745	1600.465	83.793	-158.817	1294.762	72.818	-229.452	1514.726	899.730	-222.437	1520.065	901.241	-122.229	1509.386	898.219	-322.645	1357.947	921.392	-183.280	1355.234	922.992	-238.360	1637.511	478.459	-103.121	1434.022	456.002	-306.650	1620.884	465.249	-209.084	1410.536	449.098	-210.542	1590.010	84.330	-121.768	1300.973	68.418	-267.192	1620.093	98.759	-187.805	1314.375	81.682	-203.052	1398.065	1336.399	-206.540	1503.607	1265.808	-167.541	1493.087	1265.119	-273.658	1482.830	1276.047	-224.221	1540.153	1110.327	-227.889	1681.035	689.012	-166.208	1565.783	613.872	-239.473	1597.664	700.929	-112.279	1502.470	658.279	-307.735	1627.271	620.856	-114.259	1495.886	571.720	-297.589	1592.195	205.787	-52.429	1306.890	182.757	-342.830	1597.689	211.814	-94.109	1315.294	189.535	-301.193	1709.432	62.983	-124.330	1420.038	37.364	-237.138
	137	1.37500	1462.523	834.115	-219.146	1471.491	818.469	-159.756	1454.926	815.075	-276.004	1631.387	471.850	-157.564	1424.749	459.974	-253.647	1617.433	81.147	-159.361	1295.019	73.301	-229.360	1519.781	899.054	-222.322	1525.555	900.495	-122.097	1514.006	897.613	-322.547	1363.335	920.885	-182.526	1360.315	922.524	-237.578	1641.811	476.999	-103.807	1436.828	455.613	-306.612	1624.241	463.236	-208.874	1413.365	449.025	-210.710	1607.252	81.340	-122.232	1301.158	68.870	-267.108	1636.704	96.639	-188.429	1314.528	81.954	-202.888	1403.548	1335.721	-206.333	1509.047	1265.020	-167.433	1498.433	1264.315	-273.562	1488.253	1275.300	-224.104	1545.367	1109.483	-227.781	1685.319	686.970	-166.700	1569.845	612.955	-239.855	1601.922	699.251	-112.610	1506.675	657.653	-307.774	1631.273	619.021	-114.432	1499.428	571.135	-297.779	1605.939	202.858	-52.742	1307.838	183.238	-342.734	1611.011	208.938	-94.514	1316.376	190.019	-301.071	1727.563	63.931	-125.683	1420.111	37.458	-237.071
	138	1.38333	1467.746	833.590	-218.943	1476.744	817.793	-159.495	1459.692	814.519	-275.677	1635.355	470.442	-158.270	1427.873	459.607	-253.562	1634.055	78.870	-159.796	1295.302	73.829	-229.300	1524.896	898.356	-222.196	1531.090	899.707	-121.952	1518.701	897.004	-322.440	1368.774	920.367	-181.732	1365.442	922.080	-236.773	1645.971	475.479	-104.540	1439.711	455.242	-306.582	1626.798	461.258	-209.118	1415.178	449.499	-211.488	1624.175	78.758	-122.585	1301.373	69.368	-267.056	1652.979	94.855	-188.920	1314.946	82.302	-202.814	1408.895	1335.016	-206.055	1514.393	1264.147	-167.249	1503.838	1263.447	-273.413	1493.723	1274.526	-223.947	1550.606	1108.574	-227.584	1689.546	684.764	-167.250	1573.903	612.001	-240.204	1606.345	697.481	-112.863	1511.616	657.219	-307.655	1635.168	616.984	-114.744	1503.064	570.591	-298.007	1619.471	200.259	-52.993	1308.836	183.758	-342.660	1624.002	206.393	-94.822	1317.418	190.440	-300.974	1745.244	65.285	-127.046	1420.199	37.552	-237.050
	139	1.39167	1473.007	833.125	-218.822	1482.039	817.094	-159.239	1464.517	813.964	-275.354	1639.195	469.001	-159.005	1431.051	459.256	-253.488	1650.308	76.970	-160.108	1295.609	74.402	-229.275	1530.079	897.635	-222.053	1536.680	898.878	-121.788	1523.479	896.393	-322.317	1374.266	919.844	-180.897	1370.616	921.668	-235.942	1650.029	473.928	-105.308	1442.671	454.889	-306.556	1629.204	459.300	-209.630	1417.478	449.774	-211.961	1640.755	76.595	-122.813	1301.619	69.911	-267.037	1668.763	93.543	-189.270	1315.426	82.742	-202.798	1414.374	1334.323	-205.754	1519.975	1263.432	-167.152	1509.317	1262.560	-273.207	1499.243	1273.737	-223.754	1556.102	1107.754	-227.221	1693.735	682.435	-167.881	1577.965	611.016	-240.509	1610.762	695.616	-113.127	1516.289	656.794	-307.454	1639.025	614.863	-115.172	1506.684	570.045	-298.118	1632.778	198.005	-53.174	1309.891	184.315	-342.616	1636.734	204.200	-95.045	1318.518	190.884	-300.927	1762.426	67.002	-128.419	1420.294	37.644	-237.074
	140	1.40000	1478.327	832.760	-218.874	1487.379	816.375	-158.979	1469.401	813.413	-275.029	1642.944	467.544	-159.746	1434.281	458.920	-253.427	1666.151	75.444	-160.301	1295.939	75.024	-229.283	1535.339	896.891	-221.887	1542.333	898.005	-121.601	1528.345	895.776	-322.173	1379.813	919.325	-180.026	1375.845	921.297	-235.079	1654.034	472.372	-106.093	1445.705	454.552	-306.537	1631.359	457.344	-210.290	1420.783	449.401	-212.098	1656.950	74.847	-122.921	1301.899	70.501	-267.049	1683.903	92.632	-189.545	1315.838	83.271	-202.806	1420.145	1333.638	-205.490	1525.656	1262.717	-166.969	1514.850	1261.737	-272.954	1504.816	1272.946	-223.525	1561.525	1106.931	-226.886	1697.899	680.024	-168.616	1582.040	610.005	-240.767	1615.210	693.689	-113.370	1520.421	656.238	-307.234	1642.852	612.661	-115.663	1510.350	569.425	-298.155	1645.846	196.101	-53.285	1311.010	184.909	-342.605	1649.204	202.329	-95.200	1319.772	191.432	-300.985	1779.048	69.019	-129.801	1420.391	37.729	-237.129
	141	1.40833	1483.635	832.341	-218.948	1492.764	815.633	-158.713	1474.341	812.867	-274.698	1646.641	466.082	-160.458	1437.562	458.595	-253.380	1681.488	74.271	-160.404	1296.295	75.695	-229.319	1540.679	896.117	-221.697	1548.057	897.083	-121.390	1533.300	895.151	-322.004	1385.423	918.822	-179.126	1381.143	920.970	-234.183	1658.041	470.833	-106.863	1448.811	454.229	-306.527	1633.338	455.398	-211.079	1424.462	448.812	-212.225	1672.674	73.493	-122.934	1302.213	71.138	-267.087	1698.408	91.991	-189.781	1316.147	83.897	-202.854	1426.040	1332.948	-205.246	1531.327	1261.915	-166.628	1520.408	1260.915	-272.650	1510.446	1272.163	-223.258	1566.806	1106.030	-226.542	1702.054	677.567	-169.482	1586.135	608.974	-240.982	1619.719	691.711	-113.663	1524.487	655.611	-307.118	1646.670	610.431	-116.249	1514.161	568.739	-298.225	1658.652	194.533	-53.329	1312.192	185.542	-342.624	1661.351	200.769	-95.236	1321.062	191.951	-301.070	1795.032	71.254	-131.183	1420.487	37.794	-237.194
	142	1.41667	1488.932	831.829	-218.920	1498.190	814.869	-158.439	1479.329	812.329	-274.359	1650.330	464.619	-161.100	1440.895	458.279	-253.348	1696.212	73.411	-160.454	1296.680	76.419	-229.375	1546.102	895.309	-221.481	1553.859	896.105	-121.156	1538.345	894.513	-321.806	1391.106	918.347	-178.204	1386.528	920.696	-233.257	1662.108	469.329	-107.583	1451.985	453.919	-306.530	1635.499	453.467	-211.835	1428.436	448.149	-212.395	1687.830	72.490	-122.889	1302.562	71.826	-267.145	1712.311	91.514	-189.963	1316.461	84.564	-202.948	1431.850	1332.329	-204.985	1537.068	1261.143	-166.362	1526.002	1260.058	-272.340	1516.134	1271.393	-222.953	1572.179	1105.133	-226.157	1706.212	675.097	-170.498	1590.255	607.932	-241.162	1624.228	689.757	-114.110	1528.592	654.971	-307.110	1650.537	608.316	-116.929	1518.159	568.090	-298.343	1671.165	193.266	-53.318	1313.432	186.218	-342.666	1673.301	199.525	-95.255	1322.309	192.500	-301.147	1810.301	73.615	-132.557	1420.581	37.831	-237.247
	143	1.42500	1494.320	831.339	-218.769	1503.651	814.079	-158.157	1484.354	811.800	-274.011	1654.050	463.156	-161.632	1444.280	457.971	-253.332	1710.197	72.798	-160.499	1297.097	77.200	-229.443	1551.607	894.460	-221.241	1559.740	895.060	-120.900	1543.474	893.860	-321.581	1396.869	917.906	-177.266	1392.018	920.479	-232.302	1666.286	467.871	-108.218	1455.223	453.621	-306.545	1637.770	451.450	-212.284	1432.456	447.641	-212.466	1702.300	71.772	-122.831	1302.944	72.570	-267.214	1725.576	91.252	-190.120	1317.019	85.200	-203.070	1437.599	1331.713	-204.648	1542.856	1260.405	-166.077	1531.698	1259.237	-272.037	1521.872	1270.631	-222.618	1577.764	1104.309	-225.762	1710.385	672.645	-171.681	1594.402	606.886	-241.317	1628.785	687.877	-114.728	1532.786	654.359	-307.155	1654.483	606.310	-117.629	1522.248	567.542	-298.441	1683.332	192.253	-53.267	1314.720	186.942	-342.725	1685.004	198.598	-95.286	1323.634	193.146	-301.225	1824.779	76.002	-133.918	1420.674	37.838	-237.280
	144	1.43333	1499.963	831.080	-218.561	1509.141	813.262	-157.872	1489.407	811.283	-273.657	1657.839	461.694	-162.022	1447.715	457.673	-253.328	1723.370	72.366	-160.567	1297.552	78.039	-229.519	1557.192	893.567	-220.980	1565.702	893.942	-120.628	1548.683	893.191	-321.332	1402.718	917.508	-176.314	1397.624	920.321	-231.320	1670.619	466.471	-108.741	1458.521	453.338	-306.570	1640.062	449.318	-212.355	1436.277	447.401	-212.137	1715.999	71.266	-122.795	1303.361	73.372	-267.291	1738.119	91.227	-190.344	1317.672	85.874	-203.175	1443.193	1331.067	-204.240	1548.630	1259.666	-165.657	1537.474	1258.487	-271.671	1527.661	1269.873	-222.260	1583.574	1103.573	-225.353	1714.590	670.243	-173.035	1598.578	605.848	-241.457	1633.448	686.077	-115.475	1536.990	653.733	-307.178	1658.548	604.373	-118.313	1526.219	567.023	-298.403	1695.079	191.433	-53.193	1316.046	187.723	-342.793	1696.247	197.923	-95.151	1325.089	193.842	-301.265	1838.398	78.313	-135.260	1420.772	37.816	-237.289
	145	1.44167	1505.817	831.030	-218.385	1514.657	812.420	-157.586	1494.483	810.782	-273.301	1661.726	460.241	-162.254	1451.199	457.388	-253.336	1735.685	72.048	-160.677	1298.049	78.933	-229.601	1562.854	892.630	-220.703	1571.743	892.750	-120.344	1553.965	892.510	-321.062	1408.654	917.155	-175.352	1403.345	920.224	-230.320	1675.136	465.137	-109.140	1461.874	453.071	-306.605	1642.457	447.221	-212.282	1439.792	447.148	-211.903	1728.855	70.900	-122.805	1303.811	74.232	-267.376	1749.984	91.126	-190.593	1318.038	86.654	-203.240	1448.521	1330.503	-203.841	1554.499	1258.936	-165.259	1543.291	1257.794	-271.280	1533.509	1269.127	-221.883	1589.627	1102.921	-225.057	1718.846	667.927	-174.556	1602.779	604.825	-241.589	1638.234	684.392	-116.338	1541.226	653.044	-307.096	1662.768	602.562	-119.055	1530.057	566.403	-298.356	1706.314	190.743	-53.112	1317.397	188.565	-342.869	1707.066	197.330	-94.954	1326.529	194.556	-301.272	1851.097	80.452	-136.569	1420.881	37.775	-237.282
	146	1.45000	1511.525	830.754	-218.180	1520.198	811.557	-157.302	1499.583	810.298	-272.944	1665.735	458.802	-162.327	1454.726	457.118	-253.357	1747.108	71.784	-160.835	1298.590	79.880	-229.692	1568.588	891.656	-220.413	1577.856	891.494	-120.052	1559.320	891.818	-320.774	1414.679	916.847	-174.379	1409.175	920.185	-229.308	1679.854	463.874	-109.413	1465.277	452.822	-306.653	1645.234	445.200	-212.296	1441.945	447.371	-212.676	1740.804	70.605	-122.873	1304.292	75.150	-267.472	1761.200	90.853	-190.831	1318.385	87.534	-203.307	1454.076	1329.919	-203.475	1560.439	1258.174	-164.883	1549.176	1257.066	-270.933	1539.420	1268.396	-221.479	1595.624	1102.201	-224.772	1723.181	665.739	-176.224	1607.007	603.821	-241.715	1643.128	682.801	-117.407	1546.200	652.611	-306.856	1667.193	600.875	-119.968	1533.803	565.565	-298.483	1716.931	190.120	-53.040	1318.765	189.473	-342.956	1717.299	196.749	-94.890	1327.978	195.336	-301.311	1862.833	82.333	-137.819	1421.005	37.729	-237.275
	147	1.45833	1516.932	830.071	-217.919	1525.772	810.683	-157.016	1504.720	809.831	-272.583	1669.889	457.393	-162.255	1458.291	456.861	-253.400	1757.610	71.521	-161.039	1299.166	80.877	-229.799	1574.392	890.656	-220.109	1584.034	890.190	-119.750	1564.750	891.121	-320.468	1420.790	916.577	-173.400	1415.110	920.185	-228.287	1684.778	462.686	-109.574	1468.724	452.591	-306.721	1648.573	443.089	-212.030	1443.755	448.007	-213.585	1751.787	70.317	-123.001	1304.797	76.121	-267.587	1771.465	90.714	-191.153	1319.115	88.491	-203.426	1460.174	1329.237	-203.131	1566.366	1257.423	-164.455	1555.151	1256.293	-270.539	1545.390	1267.678	-221.054	1601.390	1101.387	-224.290	1727.625	663.727	-178.005	1611.268	602.839	-241.835	1648.175	681.292	-118.687	1551.487	652.362	-306.605	1671.917	599.301	-120.928	1537.589	564.801	-298.613	1726.829	189.516	-52.986	1320.144	190.443	-343.058	1726.779	196.181	-94.881	1329.477	196.234	-301.403	1873.570	83.871	-138.970	1421.147	37.695	-237.288
